/* XPM */
static char *close_active[] = {
/* columns rows colors chars-per-pixel */
"15 22 21 1",
"  c #E23E48",
". c #DE4E58",
"X c #DF4F59",
"o c #DF535C",
"O c #E2454F",
"+ c #ED4850",
"@ c #F14F55",
"# c #E0515B",
"$ c #E0525B",
"% c #F25056",
"& c #DF5B65",
"* c #E05B65",
"= c #E05C65",
"- c #E2979D",
"; c #E2989E",
": c #E3A1A6",
"> c #E3A2A7",
", c #E9D9DB",
"< c #EAE6E7",
"1 c #EBE8E8",
"2 c #EBEBEB",
/* pixels */
"222222222222222",
"222222222222222",
"222222222222222",
"222222222222222",
"222222222222222",
"222222>&OO&>222",
"2222,o+%%%@+o,2",
"222<X@%%%%@@@X<",
"222;@%%%%%%%%+;",
"222#@%%%%%%%%%$",
"222 @@%%%%%%%% ",
"222 @@%%%%%%%% ",
"222#@@@%%%@@%@$",
"222;+@@%%%%@%@-",
"2221X@%%%%@@@$<",
"2222,#@%%%@+.,2",
"222221>=OO=:122",
"222222222222222",
"222222222222222",
"222222222222222",
"222222222222222",
"222222222222222"
};
