/* XPM */
static char *hide_active[] = {
/* columns rows colors chars-per-pixel */
"15 22 23 1",
"  c #E7B32E",
". c #E8B22B",
"X c #F3BC2D",
"o c #F3BD2E",
"O c #F4BE2F",
"+ c #E6B333",
"@ c #E4B33D",
"# c #F8C334",
"$ c #FAC536",
"% c #E3B440",
"& c #E4B440",
"* c #E3B546",
"= c #E5B644",
"- c #E4B749",
"; c #E4B84B",
": c #E4B84F",
"> c #E5CD96",
", c #E5CE99",
"< c #E5D1A0",
"1 c #EAE5D9",
"2 c #EAE6DE",
"3 c #EBEAE8",
"4 c #EBEBEB",
/* pixels */
"444444444444444",
"444444444444444",
"444444444444444",
"444444444444444",
"444444444444444",
"444444,-  ;<444",
"44441@O$$$$o*24",
"4444@#$$$$$$#*4",
"444,O$$$$$$$$o<",
"444=$$$$$$$$$$:",
"444.$$$$$$$$$$+",
"444.$$$$$$$$$$+",
"444&$$$$$$$$$$:",
"444,O$$$$$$$$o<",
"4444@#$$$$$$#@4",
"44441%O$$$#o*34",
"444444>-..-<444",
"444444444444444",
"444444444444444",
"444444444444444",
"444444444444444",
"444444444444444"
};
