/* XPM */
static char *maximize_active[] = {
/* columns rows colors chars-per-pixel */
"15 22 22 1",
"  c #33D33E",
". c #30D43C",
"X c #31D43E",
"o c #31E140",
"O c #31E240",
"+ c #32E241",
"@ c #37E847",
"# c #39EA49",
"$ c #44D04D",
"% c #45D14F",
"& c #45D150",
"* c #4BD354",
"= c #4DD256",
"- c #4ED357",
"; c #9BDB9F",
": c #9DDCA1",
"> c #A0DCA3",
", c #A0DDA4",
"< c #D9E8DA",
"1 c #DCE8DD",
"2 c #E9EBE9",
"3 c #EBEBEB",
/* pixels */
"333333333333333",
"333333333333333",
"333333333333333",
"333333333333333",
"333333333333333",
"333333;*X -:333",
"3333<$O####O&13",
"3333$@######@$3",
"333;O########O:",
"333*##########-",
"333.########## ",
"333 ########## ",
"333*##########-",
"333;O@#######O,",
"3332%@######@&3",
"3333<&o####O&13",
"333332;*..*:333",
"333333333333333",
"333333333333333",
"333333333333333",
"333333333333333",
"333333333333333"
};
